<svg xmlns="http://www.w3.org/2000/svg" xmlns:xlink="http://www.w3.org/1999/xlink" width="100" height="100" viewBox="0 0 100 100"><defs><path id="wmbia" d="M1061.594 1134.344a2.272 2.272 0 1 1-4.221-1.681 2.272 2.272 0 0 1 4.22 1.68zM1110 1130l-50 50-50-50 50-50zm-41.578 4.556l8.324-20.903a3.706 3.706 0 0 0-2.072-4.814l-9.345-3.722a3.706 3.706 0 0 0-4.814 2.073l-8.324 20.903.656 7.717a3.271 3.271 0 0 0 2.049 2.762l1.012.403a3.867 3.867 0 0 0-.719 1.18c-.56 1.406-.192 2.411.105 3.22.268.733.463 1.264.12 2.127-.345.862-.85 1.114-1.55 1.463-.77.383-1.73.86-2.29 2.267-.56 1.406-.191 2.411.105 3.22.269.734.463 1.264.12 2.127l1.421.566c.56-1.406.192-2.412-.104-3.22-.27-.734-.463-1.264-.12-2.127.344-.863.85-1.115 1.55-1.463.77-.384 1.729-.86 2.289-2.267.56-1.406.192-2.412-.104-3.22-.27-.734-.464-1.264-.12-2.127.226-.567.521-.87.896-1.11l1.748.697a3.272 3.272 0 0 0 3.387-.598l5.78-5.154zm-6.7-7.528l-.108.272-.854-.34c.017-.075.047-.183.119-.362.15-.376.38-.53.658-.42.272.11.359.415.185.85z"/></defs><g><g transform="translate(-1010 -1080)"><use fill="#333333" xlink:href="#wmbia"/></g></g></svg>