<svg xmlns="http://www.w3.org/2000/svg" xmlns:xlink="http://www.w3.org/1999/xlink" width="100" height="100" viewBox="0 0 100 100"><defs><path id="owsea" d="M580 1080l50 50-50 50-50-50zm-6.864 34.451c-8.587 3.791-12.475 13.825-8.684 22.412 3.79 8.587 13.825 12.476 22.412 8.685 8.587-3.791 12.475-13.825 8.684-22.412-3.79-8.587-13.825-12.475-22.412-8.685zm.98 18.232l11.832-5.223a6.463 6.463 0 0 1-3.305 8.528 6.463 6.463 0 0 1-8.527-3.305zm6.968-10.317a2.39 2.39 0 0 1 3.155 1.222l-4.377 1.932a2.39 2.39 0 0 1 1.222-3.154zm-4.206 4.471l-4.376 1.932a2.391 2.391 0 1 1 4.376-1.932z"/></defs><g><g transform="translate(-530 -1080)"><use fill="#333333" xlink:href="#owsea"/></g></g></svg>