<svg xmlns="http://www.w3.org/2000/svg" xmlns:xlink="http://www.w3.org/1999/xlink" width="101" height="101" viewBox="0 0 101 101"><defs><path id="w9yma" d="M339.5 1080l50.5 50.5-50.5 50.5-50.5-50.5zm17.866 44.857a.536.536 0 0 0-.536-.536h-34.66a.536.536 0 0 0-.536.536v19.257a3.611 3.611 0 0 0 3.611 3.612h28.51a3.611 3.611 0 0 0 3.611-3.612zm-4.862-11.584h-26.008a4.862 4.862 0 0 0-4.862 4.862v4.071h35.732v-4.071a4.862 4.862 0 0 0-4.862-4.862zm-26.44 3.417a1.05 1.05 0 1 1 0 2.1 1.05 1.05 0 0 1 0-2.1zm27.593 23.398c0 .296-.24.536-.536.536h-13.087a.536.536 0 1 1 0-1.072h13.087c.296 0 .536.24.536.536zm0-5.137c0 .297-.24.536-.536.536h-13.087a.536.536 0 1 1 0-1.072h13.087c.296 0 .536.24.536.536zm0-5.091c0 .296-.24.536-.536.536h-13.087a.536.536 0 1 1 0-1.072h13.087c.296 0 .536.24.536.536zm-18.623-.569v13.353c0 .296-.24.536-.536.536h-7.253a.536.536 0 0 1-.536-.536v-13.353c0-.296.24-.535.536-.535h7.253c.296 0 .536.24.536.535zm-5.772-11.552a1.05 1.05 0 1 1 2.099 0 1.05 1.05 0 0 1-2.1 0zm4.31 0a1.05 1.05 0 1 1 2.099 0 1.05 1.05 0 0 1-2.1 0z"/></defs><g><g transform="translate(-289 -1080)"><use fill="#333333" xlink:href="#w9yma"/></g></g></svg>